<svg width="20" height="20" viewBox="0 0 20 20" fill="none" xmlns="http://www.w3.org/2000/svg">
<path d="M17.7085 20H2.29191C1.02773 20 0.000366211 18.9725 0.000366211 17.7085V5.62516C0.000366211 4.36098 1.02773 3.33362 2.29191 3.33362H5.2086C5.55359 3.33362 5.83359 3.61361 5.83359 3.95861C5.83359 4.30361 5.55359 4.58361 5.2086 4.58361H2.29191C1.71773 4.58361 1.25035 5.05098 1.25035 5.62516V17.7085C1.25035 18.2825 1.71773 18.75 2.29191 18.75H17.7085C18.2827 18.75 18.7502 18.2825 18.7502 17.7085V10.6251C18.7502 10.2801 19.0302 10.0001 19.3752 10.0001C19.7202 10.0001 20.0002 10.2801 20.0002 10.6251V17.7085C20.0002 18.9725 18.9727 20 17.7085 20Z" fill="#010E36"/>
<path d="M5.62432 13.3226C5.57855 13.3226 5.53262 13.3176 5.48684 13.3058C5.2044 13.2401 5.00024 12.9984 5.00024 12.7085V11.4585C5.00024 6.97854 8.64523 3.33356 13.1252 3.33356H13.3334V0.625147C13.3334 0.370176 13.4885 0.140991 13.7251 0.0451666C13.9609 -0.0497421 14.2317 0.00763032 14.4084 0.191802L19.8251 5.81675C20.0584 6.05844 20.0584 6.44174 19.8251 6.68344L14.4084 12.3084C14.2317 12.4926 13.9592 12.5493 13.7251 12.455C13.4885 12.3592 13.3334 12.13 13.3334 11.875V9.16678H12.3435C9.72188 9.16678 7.36594 10.6234 6.19439 12.9676C6.08681 13.1842 5.86098 13.3226 5.62432 13.3226ZM13.1252 4.58354C9.62514 4.58354 6.72691 7.21261 6.30272 10.6C7.8176 8.91013 9.99012 7.91679 12.3435 7.91679H13.9584C14.3034 7.91679 14.5834 8.19679 14.5834 8.54179V10.3251L18.5075 6.25009L14.5834 2.17512V3.95855C14.5834 4.30355 14.3034 4.58354 13.9584 4.58354H13.1252Z" fill="#010E36"/>
</svg>
